<svg width="184" height="184" xmlns="http://www.w3.org/2000/svg">
    <g>
        <rect fill="#fafafa" height="186" width="186" y="-1" x="-1"/>
        <g display="none" overflow="visible" y="0" x="0" height="100%" width="100%">
            <rect fill="url(#gridpattern)" stroke-width="0" y="0" x="0" height="100%" width="100%"/>
        </g>
    </g>
    <g>
        <g stroke="null">
            <g stroke="null" transform="matrix(0.7517628956044581,0,0,0.7517628956044581,108.81089239169927,83.33985240320303) ">
                <path stroke="null" fill-rule="nonzero" fill="rgb(56.470588%,56.470588%,56.470588%)" d="m-33.56118,0.32057c-1.53125,0 -2.80078,1.26953 -2.80078,2.80078l0,16.79688c0,1.53125 1.26953,2.80078 2.80078,2.80078l22.39844,0c1.53125,0 2.80078,-1.26953 2.80078,-2.80078l0,-16.79688c0,-1.53125 -1.26953,-2.80078 -2.80078,-2.80078l-22.39844,0zm0,2.80078l22.39844,0l0,16.79688l-22.39844,0l0,-16.79688zm14.69922,7l-4.89844,5.59766l-3.5,-3.5l-3.8125,4.90234l17.46094,0l-5.25,-7zm0,0"/>
            </g>
        </g>
    </g>
</svg>
