<svg xmlns="http://www.w3.org/2000/svg" viewBox="0 0 30 30" width="16" height="16">
    <style>
        tspan { white-space:pre }
        .shp0 { fill: #ffffff }
    </style>
    <path id="Layer" fill-rule="evenodd" class="shp0" d="M15 2C15.03 2 15.06 2 15.09 2.01C15.12 2.01 15.15 2.01 15.18 2.02C15.21 2.03 15.24 2.03 15.27 2.04C15.3 2.05 15.33 2.06 15.36 2.07C19.04 2.27 22 5.27 22 9L22 11L24 11C25.11 11 26 11.89 26 13L26 25C26 26.11 25.11 27 24 27L6 27C4.89 27 4 26.11 4 25L4 13C4 11.89 4.89 11 6 11L8 11L8 9C8 5.15 11.15 2 15 2ZM10 9L10 11L20 11L20 9C20 6.23 17.77 4 15 4C12.23 4 10 6.23 10 9Z" />
</svg>
